<svg xmlns="http://www.w3.org/2000/svg" width="1200" height="675" viewBox="0 0 1200 675"><rect width="1200" height="675" fill="#f7f2ea"/><rect y="455" width="1200" height="220" fill="#e8ddcf"/><rect x="105" y="90" width="990" height="490" rx="34" fill="#fffdfa"/><rect x="165" y="310" width="520" height="190" rx="28" fill="#d7c6b5"/><rect x="195" y="250" width="470" height="180" rx="36" fill="#f0e2d2"/><rect x="220" y="230" width="180" height="95" rx="28" fill="#fff7ef"/><path d="M230 390c90-80 210-65 310 0s120 50 150 30v90H190v-70c10-10 20-25 40-50z" fill="#cda98d"/><rect x="760" y="180" width="150" height="250" rx="25" fill="#dce9e2"/><circle cx="835" cy="245" r="45" fill="#fff"/><path d="M835 215c25 35 31 52 0 76-31-24-25-41 0-76z" fill="#7da58f"/><path d="M720 345c55-30 90-18 125 22" fill="none" stroke="#8aa997" stroke-width="12" stroke-linecap="round"/><path d="M705 400c65 20 110 15 150-20" fill="none" stroke="#8aa997" stroke-width="12" stroke-linecap="round"/><circle cx="950" cy="235" r="34" fill="#f3d6a9"/><path d="M950 205v60M920 235h60" stroke="#fff" stroke-width="8" stroke-linecap="round"/><rect x="900" y="320" width="110" height="120" rx="18" fill="#ead8bf"/><rect x="925" y="345" width="60" height="70" rx="8" fill="#fff"/></svg>