<svg xmlns="http://www.w3.org/2000/svg" width="1200" height="675" viewBox="0 0 1200 675">
<defs><linearGradient id="bg" x1="0" y1="0" x2="1" y2="1"><stop stop-color="#f6efe7"/><stop offset="1" stop-color="#e8f4ec"/></linearGradient><filter id="s"><feDropShadow dx="0" dy="10" stdDeviation="12" flood-opacity=".16"/></filter></defs>
<rect width="1200" height="675" fill="url(#bg)"/>
<rect y="540" width="1200" height="135" fill="#d8c6aa"/>
<g filter="url(#s)">
<rect x="180" y="95" width="560" height="475" rx="24" fill="#9b7658"/>
<rect x="215" y="130" width="490" height="405" rx="12" fill="#f7f1e7"/>
<line x1="460" y1="130" x2="460" y2="535" stroke="#c5aa8d" stroke-width="8"/>
<line x1="245" y1="190" x2="430" y2="190" stroke="#82644e" stroke-width="8"/>
<line x1="490" y1="190" x2="675" y2="190" stroke="#82644e" stroke-width="8"/>
</g>
<g transform="translate(260 198)">
<path d="M25 0l-20 25h40z" fill="#7c6f64"/><path d="M25 25c0 25-18 42-40 50l18 155h44L65 75C43 67 25 50 25 25z" fill="#a7c7e7"/>
<path d="M135 0l-20 25h40z" fill="#7c6f64"/><path d="M135 25c0 25-18 42-40 50l18 155h44l18-155c-22-8-40-25-40-50z" fill="#d6a7a7"/>
</g>
<g transform="translate(505 198)">
<path d="M25 0l-20 25h40z" fill="#7c6f64"/><rect x="-12" y="50" width="74" height="180" rx="22" fill="#b8d5a3"/>
<path d="M135 0l-20 25h40z" fill="#7c6f64"/><rect x="98" y="50" width="74" height="180" rx="22" fill="#d9c28c"/>
</g>
<g filter="url(#s)">
<rect x="795" y="190" width="210" height="280" rx="30" fill="#fff"/>
<circle cx="900" cy="285" r="62" fill="#dbeafe"/><path d="M900 235c38 46 46 61 46 81a46 46 0 1 1-92 0c0-20 8-35 46-81z" fill="#60a5fa"/>
<rect x="835" y="386" width="130" height="16" rx="8" fill="#cbd5e1"/>
</g>
<path d="M735 270c42-22 74-26 110-8" fill="none" stroke="#4d7c5d" stroke-width="12" stroke-linecap="round"/>
<path d="M823 241l32 19-28 24" fill="#4d7c5d"/>
<g opacity=".45" fill="#74a37d"><circle cx="270" cy="520" r="8"/><circle cx="335" cy="495" r="6"/><circle cx="590" cy="500" r="9"/></g>
</svg>