<svg xmlns="http://www.w3.org/2000/svg" width="1200" height="675" viewBox="0 0 1200 675">
<defs><linearGradient id="bg" x1="0" y1="0" x2="1" y2="1"><stop stop-color="#f4f1e8"/><stop offset="1" stop-color="#dce8df"/></linearGradient><filter id="sh"><feDropShadow dx="0" dy="10" stdDeviation="12" flood-opacity=".16"/></filter></defs>
<rect width="1200" height="675" fill="url(#bg)"/><rect x="0" y="520" width="1200" height="155" fill="#d8c7aa"/><rect x="0" y="500" width="1200" height="25" fill="#c6b28f"/>
<g filter="url(#sh)"><rect x="170" y="72" width="405" height="500" rx="28" fill="#eef2f0"/><rect x="205" y="105" width="335" height="210" rx="18" fill="#d9e4e3"/><rect x="205" y="336" width="335" height="202" rx="18" fill="#f8faf9"/><rect x="510" y="168" width="12" height="76" rx="6" fill="#9ca7a4"/></g>
<path d="M220 350h305v174H220z" fill="#fff"/><path d="M232 364h281v146H232z" fill="none" stroke="#3e4b48" stroke-width="14" stroke-linejoin="round"/>
<g filter="url(#sh)"><rect x="655" y="102" width="310" height="170" rx="28" fill="#fff"/></g><path d="M700 220c20-54 36-78 68-98 20 34 22 68 2 103" fill="#a6c9b4"/><path d="M792 216c18-38 43-64 78-76 9 39-1 70-27 94" fill="#7eaa91"/><rect x="685" y="222" width="220" height="18" rx="9" fill="#d6ded8"/>
<g filter="url(#sh)"><rect x="650" y="326" width="355" height="215" rx="28" fill="#fff"/></g><rect x="698" y="375" width="120" height="105" rx="18" fill="#a8d4df"/><path d="M720 401h76M720 425h58M720 449h68" stroke="#fff" stroke-width="9" stroke-linecap="round"/><path d="M862 390c35 18 43 48 26 86" fill="none" stroke="#8bb99d" stroke-width="16" stroke-linecap="round"/><path d="M897 370c24 29 24 62 0 93" fill="none" stroke="#cad9ce" stroke-width="10" stroke-linecap="round"/>
<path d="M564 426c38-7 66-18 94-42" fill="none" stroke="#859d91" stroke-width="9" stroke-linecap="round"/><path d="M657 384l-18 3 6-17" fill="none" stroke="#859d91" stroke-width="9" stroke-linecap="round"/>
<circle cx="577" cy="477" r="20" fill="#ffffff" opacity=".9"/><path d="M565 477l9 9 17-22" fill="none" stroke="#6c9b7d" stroke-width="7" stroke-linecap="round" stroke-linejoin="round"/>
</svg>