<svg xmlns="http://www.w3.org/2000/svg" width="1200" height="675" viewBox="0 0 1200 675">
<defs><linearGradient id="sky" x1="0" y1="0" x2="0" y2="1"><stop stop-color="#9ec7cf"/><stop offset="1" stop-color="#e5eff0"/></linearGradient></defs>
<rect width="1200" height="675" fill="#efe9df"/><path d="M0 570H1200V675H0Z" fill="#bda58a"/><path d="M0 570H1200" stroke="#f7f4ee" stroke-width="22"/>
<rect x="152" y="67" width="632" height="473" rx="15" fill="#f9f8f4" stroke="#adb1ae" stroke-width="17"/>
<rect x="178" y="89" width="578" height="423" fill="url(#sky)"/>
<path d="M178 367L308 278L418 350L525 251L756 389V512H178Z" fill="#a8c2b7"/>
<path d="M178 405L320 342L470 401L638 326L756 385V512H178Z" fill="#88a49c"/>
<path d="M462 89V511" stroke="#f8fbfb" stroke-width="21"/><path d="M178 303H756" stroke="#f8fbfb" stroke-width="19"/>
<g fill="#f9fcfd" opacity=".82"><path d="M234 154c-9 24-20 44-15 64 5 19 27 21 33 2 5-17-4-39-18-66Z"/><path d="M365 194c-9 24-20 44-15 64 5 19 27 21 33 2 5-17-4-39-18-66Z"/><path d="M602 365c-9 24-20 44-15 64 5 19 27 21 33 2 5-17-4-39-18-66Z"/><path d="M696 166c-7 17-15 33-11 47 4 14 19 16 24 2 4-13-3-27-13-49Z"/></g>
<path d="M120 65Q80 190 133 391Q150 477 118 553" fill="none" stroke="#8ba9a4" stroke-width="55" stroke-linecap="round"/><path d="M809 66Q864 213 818 363" fill="none" stroke="#a5bcb2" stroke-width="49" stroke-linecap="round"/>
<rect x="132" y="502" width="671" height="42" rx="7" fill="#e9e5dc"/><path d="M132 546h675" stroke="#bfb0a0" stroke-width="9"/>
<path d="M467 518L744 518" stroke="#b9d8df" stroke-width="12" stroke-linecap="round"/>
<g transform="translate(855 322)"><rect x="0" y="20" width="215" height="176" rx="28" fill="#fffefa" stroke="#92aca9" stroke-width="7"/><circle cx="109" cy="102" r="62" fill="#eef3ed"/><path d="M69 101a42 42 0 0 1 79-20" fill="none" stroke="#70a9b2" stroke-width="14" stroke-linecap="round"/><path d="M108 101l31-25" stroke="#536f75" stroke-width="9" stroke-linecap="round"/><circle cx="108" cy="101" r="11" fill="#536f75"/><rect x="51" y="158" width="118" height="13" rx="7" fill="#c8d6ce"/></g>
<path d="M1005 586L1101 548L1150 598L1097 652L994 650Z" fill="#f1c98f" stroke="#b99665" stroke-width="8"/><path d="M1020 616l78-34" stroke="#fff1d9" stroke-width="11"/>
<rect x="888" y="538" width="60" height="89" rx="6" fill="#93745b"/><path d="M879 538q-65-43-18-83m48 87q44-88 75-61" stroke="#5d8a70" stroke-width="13" stroke-linecap="round" fill="none"/><ellipse cx="859" cy="476" rx="39" ry="19" transform="rotate(40 859 476)" fill="#84a78b"/><ellipse cx="967" cy="487" rx="42" ry="18" transform="rotate(-30 967 487)" fill="#84a78b"/>
</svg>